<svg xmlns="http://www.w3.org/2000/svg" viewBox="0 0 1024 665" fill="white">
  <path d="M 353 488 L 353 489 L 349 493 L 349 494 L 348 495 L 348 496 L 346 498 L 346 499 L 345 500 L 345 502 L 344 503 L 344 505 L 343 506 L 343 509 L 342 510 L 342 515 L 341 516 L 341 530 L 342 531 L 342 536 L 343 537 L 343 541 L 344 542 L 344 544 L 345 545 L 345 547 L 346 548 L 346 549 L 347 550 L 347 552 L 348 553 L 348 554 L 350 556 L 350 557 L 351 558 L 351 559 L 354 562 L 354 563 L 359 568 L 360 568 L 363 571 L 364 571 L 365 572 L 366 572 L 367 573 L 368 573 L 369 574 L 370 574 L 371 575 L 373 575 L 374 576 L 376 576 L 377 577 L 382 577 L 383 578 L 419 578 L 418 577 L 418 576 L 417 575 L 417 573 L 416 572 L 416 570 L 415 569 L 415 567 L 414 566 L 414 563 L 413 562 L 413 556 L 412 555 L 412 540 L 413 539 L 413 533 L 414 532 L 414 528 L 415 527 L 415 524 L 416 523 L 416 521 L 417 520 L 417 518 L 418 517 L 418 515 L 419 514 L 419 512 L 420 511 L 420 510 L 421 509 L 421 508 L 422 507 L 422 506 L 423 505 L 423 504 L 425 502 L 425 501 L 426 500 L 426 499 L 424 497 L 423 497 L 420 494 L 419 494 L 417 492 L 416 492 L 415 491 L 414 491 L 413 490 L 412 490 L 411 489 L 409 489 L 408 488 Z M 736 464 L 734 466 L 734 467 L 728 473 L 727 473 L 724 476 L 723 476 L 721 478 L 720 478 L 719 479 L 718 479 L 717 480 L 716 480 L 715 481 L 714 481 L 713 482 L 712 482 L 711 483 L 709 483 L 708 484 L 706 484 L 705 485 L 702 485 L 701 486 L 697 486 L 696 487 L 685 487 L 684 488 L 621 488 L 619 486 L 619 484 L 620 483 L 619 483 L 615 487 L 614 487 L 611 490 L 610 490 L 608 492 L 607 492 L 605 494 L 604 494 L 603 495 L 602 495 L 601 496 L 600 496 L 598 498 L 597 498 L 596 499 L 595 499 L 594 500 L 592 500 L 591 501 L 590 501 L 589 502 L 588 502 L 588 503 L 586 505 L 586 506 L 584 508 L 584 509 L 583 510 L 583 511 L 581 513 L 581 514 L 580 515 L 580 516 L 578 518 L 578 519 L 576 521 L 576 522 L 575 523 L 575 524 L 573 526 L 573 527 L 572 528 L 572 529 L 570 531 L 570 532 L 569 533 L 569 534 L 567 536 L 567 537 L 565 539 L 565 540 L 564 541 L 564 544 L 566 546 L 566 547 L 568 549 L 568 550 L 570 552 L 570 553 L 571 554 L 571 555 L 573 557 L 573 558 L 575 560 L 575 561 L 577 563 L 577 564 L 578 565 L 578 566 L 580 568 L 580 569 L 582 571 L 582 572 L 584 574 L 584 575 L 585 576 L 585 577 L 587 579 L 587 580 L 589 582 L 589 583 L 590 584 L 590 585 L 592 587 L 592 588 L 594 590 L 594 591 L 596 593 L 596 594 L 597 595 L 597 596 L 599 598 L 599 599 L 601 601 L 601 602 L 602 603 L 602 604 L 604 606 L 604 607 L 606 609 L 606 610 L 607 611 L 607 612 L 609 614 L 609 615 L 610 616 L 610 579 L 611 578 L 653 578 L 654 577 L 658 577 L 659 576 L 661 576 L 662 575 L 663 575 L 664 574 L 665 574 L 666 573 L 667 573 L 668 572 L 669 572 L 671 570 L 672 570 L 678 564 L 678 563 L 680 561 L 680 560 L 682 558 L 682 557 L 683 556 L 683 555 L 684 554 L 684 553 L 686 551 L 686 550 L 687 549 L 687 548 L 688 547 L 688 546 L 690 544 L 690 543 L 691 542 L 691 541 L 693 539 L 693 538 L 694 537 L 694 536 L 695 535 L 695 534 L 696 533 L 696 532 L 698 530 L 698 529 L 699 528 L 699 527 L 700 526 L 700 525 L 702 523 L 702 522 L 703 521 L 703 520 L 704 519 L 704 518 L 706 516 L 706 515 L 707 514 L 707 513 L 708 512 L 708 511 L 710 509 L 710 508 L 711 507 L 711 506 L 712 505 L 712 504 L 714 502 L 714 501 L 715 500 L 715 499 L 717 497 L 717 496 L 718 495 L 718 494 L 719 493 L 719 492 L 721 490 L 721 489 L 722 488 L 722 487 L 723 486 L 723 485 L 725 483 L 725 482 L 726 481 L 726 480 L 727 479 L 727 478 L 729 476 L 729 475 L 730 474 L 730 473 L 731 472 L 731 471 L 733 469 L 733 468 L 734 467 L 734 466 Z M 649 337 L 649 348 L 648 349 L 648 354 L 647 355 L 647 359 L 646 360 L 646 363 L 645 364 L 645 367 L 644 368 L 644 370 L 643 371 L 643 373 L 642 374 L 642 376 L 641 377 L 641 378 L 640 379 L 640 381 L 639 382 L 639 383 L 638 384 L 638 385 L 637 386 L 637 387 L 636 388 L 636 389 L 634 391 L 634 392 L 633 393 L 633 394 L 630 397 L 630 398 L 628 400 L 628 401 L 622 407 L 622 408 L 616 414 L 615 414 L 610 419 L 609 419 L 606 422 L 605 422 L 603 424 L 602 424 L 601 425 L 600 425 L 599 426 L 598 426 L 597 427 L 596 427 L 595 428 L 594 428 L 593 429 L 591 429 L 590 430 L 587 430 L 587 434 L 586 435 L 586 439 L 585 440 L 585 443 L 584 444 L 584 445 L 583 446 L 583 448 L 582 449 L 582 451 L 581 452 L 581 453 L 580 454 L 580 455 L 579 456 L 579 457 L 578 458 L 578 459 L 577 460 L 577 461 L 575 463 L 575 464 L 574 465 L 574 466 L 573 467 L 573 468 L 571 470 L 571 471 L 570 472 L 570 473 L 568 475 L 568 476 L 566 478 L 566 479 L 564 481 L 564 482 L 560 486 L 560 487 L 556 491 L 566 491 L 567 490 L 572 490 L 573 489 L 577 489 L 578 488 L 581 488 L 582 487 L 585 487 L 586 486 L 588 486 L 589 485 L 591 485 L 592 484 L 593 484 L 594 483 L 596 483 L 597 482 L 598 482 L 599 481 L 601 481 L 602 480 L 603 480 L 604 479 L 605 479 L 606 478 L 607 478 L 608 477 L 609 477 L 611 475 L 612 475 L 613 474 L 614 474 L 616 472 L 617 472 L 619 470 L 620 470 L 622 468 L 623 468 L 627 464 L 628 464 L 641 451 L 641 450 L 645 446 L 645 445 L 647 443 L 647 442 L 649 440 L 649 439 L 650 438 L 650 437 L 651 436 L 651 435 L 653 433 L 652 433 L 648 437 L 647 437 L 645 439 L 644 439 L 642 441 L 641 441 L 640 442 L 639 442 L 638 443 L 637 443 L 636 444 L 635 444 L 634 445 L 633 445 L 632 446 L 631 446 L 630 447 L 628 447 L 627 448 L 626 448 L 625 449 L 622 449 L 621 450 L 619 450 L 618 451 L 615 451 L 614 452 L 611 452 L 610 453 L 608 453 L 607 452 L 609 450 L 610 450 L 611 449 L 613 449 L 614 448 L 615 448 L 617 446 L 618 446 L 620 444 L 621 444 L 622 443 L 623 443 L 626 440 L 627 440 L 630 437 L 631 437 L 644 424 L 644 423 L 647 420 L 647 419 L 649 417 L 649 416 L 651 414 L 651 413 L 652 412 L 652 411 L 653 410 L 653 409 L 654 408 L 654 407 L 655 406 L 655 405 L 656 404 L 656 402 L 657 401 L 657 399 L 658 398 L 658 396 L 659 395 L 659 391 L 660 390 L 660 382 L 661 381 L 661 377 L 660 376 L 660 367 L 659 366 L 659 361 L 658 360 L 658 358 L 657 357 L 657 354 L 656 353 L 656 351 L 655 350 L 655 349 L 654 348 L 654 347 L 653 346 L 653 345 L 652 344 L 652 343 L 651 342 L 651 341 L 650 340 L 650 339 L 649 338 Z M 269 336 L 270 337 L 271 337 L 274 340 L 275 340 L 277 342 L 278 342 L 280 344 L 281 344 L 283 346 L 284 346 L 286 348 L 287 348 L 289 350 L 290 350 L 292 352 L 293 352 L 295 354 L 296 354 L 299 357 L 299 358 L 297 360 L 297 361 L 296 362 L 296 363 L 294 365 L 294 366 L 293 367 L 293 368 L 291 370 L 291 371 L 290 372 L 290 373 L 288 375 L 288 376 L 287 377 L 287 378 L 285 380 L 285 381 L 284 382 L 284 383 L 282 385 L 282 386 L 281 387 L 281 388 L 279 390 L 279 391 L 278 392 L 278 393 L 277 394 L 277 395 L 276 396 L 276 397 L 275 398 L 275 399 L 274 400 L 274 401 L 273 402 L 273 403 L 272 404 L 272 406 L 271 407 L 271 411 L 270 412 L 270 422 L 271 423 L 271 426 L 272 427 L 272 429 L 273 430 L 273 431 L 274 432 L 274 433 L 275 434 L 275 435 L 277 437 L 277 438 L 278 439 L 278 440 L 279 441 L 279 442 L 281 444 L 281 445 L 282 446 L 282 447 L 284 449 L 284 450 L 285 451 L 285 452 L 286 453 L 286 454 L 288 456 L 288 457 L 289 458 L 289 459 L 291 461 L 291 462 L 292 463 L 292 464 L 293 465 L 293 466 L 295 468 L 295 469 L 296 470 L 296 471 L 298 473 L 298 474 L 299 475 L 299 476 L 301 478 L 301 479 L 302 480 L 302 481 L 303 482 L 303 483 L 305 485 L 305 486 L 306 487 L 306 488 L 307 489 L 307 490 L 309 492 L 309 493 L 310 494 L 310 495 L 312 497 L 312 498 L 313 499 L 313 500 L 314 501 L 314 502 L 316 504 L 316 505 L 317 506 L 317 507 L 319 509 L 319 510 L 320 511 L 320 512 L 321 513 L 321 514 L 323 516 L 323 517 L 324 518 L 324 519 L 325 520 L 325 521 L 327 523 L 327 524 L 328 525 L 328 526 L 329 527 L 329 528 L 330 529 L 330 530 L 331 531 L 330 530 L 330 527 L 329 526 L 329 506 L 330 505 L 330 501 L 331 500 L 331 498 L 332 497 L 332 495 L 333 494 L 333 493 L 334 492 L 334 491 L 335 490 L 335 489 L 336 488 L 336 487 L 337 486 L 337 485 L 338 484 L 338 483 L 340 481 L 340 480 L 341 479 L 341 478 L 343 476 L 343 475 L 344 474 L 344 473 L 346 471 L 346 470 L 348 468 L 348 467 L 349 466 L 349 465 L 351 463 L 351 462 L 352 461 L 352 460 L 354 458 L 354 457 L 356 455 L 356 454 L 357 453 L 357 452 L 359 450 L 359 449 L 361 447 L 361 446 L 360 445 L 360 444 L 359 443 L 359 442 L 358 441 L 358 440 L 357 439 L 357 438 L 356 437 L 356 436 L 355 435 L 355 433 L 354 432 L 354 431 L 353 430 L 353 429 L 352 428 L 352 426 L 351 425 L 351 423 L 350 422 L 350 419 L 349 418 L 349 415 L 348 414 L 348 411 L 347 410 L 347 406 L 346 405 L 346 400 L 345 399 L 345 391 L 344 390 L 344 357 L 345 356 L 345 347 L 346 346 L 346 339 L 347 338 L 347 336 Z M 680 285 L 678 287 L 677 287 L 676 288 L 675 288 L 673 290 L 672 290 L 671 291 L 670 291 L 669 292 L 668 292 L 667 293 L 666 293 L 664 295 L 663 295 L 662 296 L 661 296 L 660 297 L 659 297 L 657 299 L 656 299 L 655 300 L 654 300 L 653 301 L 652 301 L 651 302 L 650 302 L 651 303 L 651 304 L 653 306 L 653 307 L 655 309 L 655 310 L 657 312 L 657 313 L 658 314 L 658 315 L 660 317 L 660 318 L 661 319 L 661 320 L 662 321 L 662 322 L 664 324 L 664 325 L 665 326 L 665 327 L 666 328 L 666 329 L 667 330 L 667 331 L 668 332 L 668 334 L 669 335 L 669 336 L 670 337 L 670 338 L 671 339 L 671 340 L 672 341 L 672 343 L 673 344 L 673 345 L 674 346 L 674 348 L 675 349 L 675 351 L 676 352 L 676 354 L 677 355 L 677 357 L 678 358 L 678 362 L 679 363 L 679 366 L 680 367 L 680 371 L 681 372 L 681 378 L 682 379 L 682 391 L 683 392 L 683 404 L 682 405 L 682 421 L 681 422 L 681 434 L 680 435 L 680 441 L 679 442 L 679 447 L 678 448 L 678 451 L 677 452 L 677 456 L 676 457 L 676 459 L 675 460 L 675 461 L 695 461 L 696 460 L 708 460 L 709 459 L 714 459 L 715 458 L 718 458 L 719 457 L 721 457 L 722 456 L 724 456 L 725 455 L 726 455 L 727 454 L 728 454 L 729 453 L 730 453 L 732 451 L 733 451 L 736 448 L 737 448 L 740 445 L 740 444 L 743 441 L 743 440 L 745 438 L 745 437 L 746 436 L 746 435 L 747 434 L 747 433 L 748 432 L 748 430 L 749 429 L 749 426 L 750 425 L 750 409 L 749 408 L 749 406 L 748 405 L 748 403 L 747 402 L 747 401 L 746 400 L 746 399 L 745 398 L 745 397 L 744 396 L 744 395 L 743 394 L 743 393 L 742 392 L 742 391 L 740 389 L 740 388 L 739 387 L 739 386 L 738 385 L 738 384 L 736 382 L 736 381 L 735 380 L 735 379 L 733 377 L 733 376 L 732 375 L 732 374 L 731 373 L 731 372 L 729 370 L 729 369 L 728 368 L 728 367 L 727 366 L 727 365 L 725 363 L 725 362 L 724 361 L 724 360 L 723 359 L 723 358 L 721 356 L 721 355 L 720 354 L 720 353 L 719 352 L 719 351 L 717 349 L 717 348 L 716 347 L 716 346 L 715 345 L 715 344 L 713 342 L 713 341 L 712 340 L 712 339 L 711 338 L 711 337 L 709 335 L 709 334 L 708 333 L 708 332 L 707 331 L 707 330 L 705 328 L 705 327 L 704 326 L 704 325 L 703 324 L 703 323 L 702 322 L 702 321 L 700 319 L 700 318 L 699 317 L 699 316 L 698 315 L 698 314 L 696 312 L 696 311 L 695 310 L 695 309 L 693 307 L 693 306 L 692 305 L 692 304 L 691 303 L 691 302 L 689 300 L 689 299 L 688 298 L 688 297 L 687 296 L 687 295 L 685 293 L 685 292 L 684 291 L 684 290 L 683 289 L 683 288 L 681 286 L 681 285 Z M 452 234 L 451 235 L 449 235 L 448 236 L 447 236 L 446 237 L 444 237 L 443 238 L 442 238 L 441 239 L 440 239 L 438 241 L 437 241 L 436 242 L 435 242 L 433 244 L 432 244 L 429 247 L 428 247 L 424 251 L 423 251 L 418 256 L 418 257 L 414 261 L 414 262 L 411 265 L 411 266 L 410 267 L 410 268 L 408 270 L 408 271 L 407 272 L 407 273 L 406 274 L 406 275 L 405 276 L 405 278 L 404 279 L 404 281 L 403 282 L 403 284 L 402 285 L 402 288 L 401 289 L 401 294 L 400 295 L 400 315 L 401 316 L 401 321 L 402 322 L 402 326 L 403 327 L 403 329 L 404 330 L 404 333 L 405 334 L 405 336 L 406 337 L 406 338 L 407 339 L 407 341 L 408 342 L 408 343 L 410 345 L 410 346 L 411 347 L 411 348 L 412 349 L 412 350 L 415 353 L 415 354 L 414 355 L 402 343 L 402 342 L 400 340 L 400 339 L 398 337 L 398 336 L 397 335 L 397 334 L 395 332 L 395 331 L 394 330 L 394 329 L 393 328 L 393 326 L 392 325 L 392 324 L 391 323 L 391 322 L 390 321 L 390 319 L 389 318 L 389 316 L 388 315 L 388 313 L 387 312 L 387 308 L 386 307 L 386 300 L 385 299 L 385 289 L 385 290 L 384 291 L 384 292 L 383 293 L 383 294 L 382 295 L 382 296 L 381 297 L 381 298 L 380 299 L 380 300 L 379 301 L 379 302 L 378 303 L 378 305 L 377 306 L 377 308 L 376 309 L 376 311 L 375 312 L 375 315 L 374 316 L 374 319 L 373 320 L 373 324 L 372 325 L 372 332 L 371 333 L 371 343 L 372 344 L 372 351 L 373 352 L 373 355 L 374 356 L 374 358 L 375 359 L 375 361 L 376 362 L 376 364 L 377 365 L 377 366 L 378 367 L 378 368 L 379 369 L 379 370 L 380 371 L 380 372 L 381 373 L 381 374 L 383 376 L 383 377 L 386 380 L 386 381 L 396 391 L 397 391 L 401 395 L 402 395 L 404 397 L 405 397 L 407 399 L 408 399 L 409 400 L 410 400 L 412 402 L 414 402 L 415 403 L 416 403 L 417 404 L 419 404 L 420 405 L 422 405 L 423 406 L 426 406 L 427 407 L 430 407 L 431 408 L 430 409 L 423 409 L 422 410 L 418 410 L 417 409 L 408 409 L 407 408 L 403 408 L 402 407 L 400 407 L 399 406 L 397 406 L 396 405 L 394 405 L 393 404 L 392 404 L 391 403 L 390 403 L 389 402 L 388 402 L 386 400 L 385 400 L 383 398 L 382 398 L 380 396 L 379 396 L 368 385 L 368 384 L 365 381 L 365 380 L 364 379 L 364 380 L 365 381 L 365 387 L 366 388 L 366 392 L 367 393 L 367 395 L 368 396 L 368 399 L 369 400 L 369 402 L 370 403 L 370 404 L 371 405 L 371 406 L 372 407 L 372 409 L 373 410 L 373 411 L 374 412 L 374 413 L 376 415 L 376 416 L 378 418 L 378 419 L 380 421 L 380 422 L 390 432 L 391 432 L 394 435 L 395 435 L 397 437 L 398 437 L 399 438 L 400 438 L 401 439 L 402 439 L 403 440 L 405 440 L 406 441 L 407 441 L 408 442 L 410 442 L 411 443 L 414 443 L 415 444 L 418 444 L 419 445 L 425 445 L 426 446 L 445 446 L 446 445 L 453 445 L 454 444 L 458 444 L 459 443 L 460 443 L 461 442 L 462 442 L 463 443 L 460 446 L 459 446 L 455 450 L 454 450 L 452 452 L 451 452 L 450 453 L 449 453 L 448 454 L 447 454 L 446 455 L 445 455 L 444 456 L 442 456 L 441 457 L 439 457 L 438 458 L 435 458 L 434 459 L 424 459 L 423 460 L 420 460 L 419 459 L 411 459 L 410 458 L 406 458 L 405 457 L 401 457 L 400 456 L 399 456 L 406 463 L 407 463 L 411 467 L 412 467 L 415 470 L 416 470 L 418 472 L 419 472 L 420 473 L 421 473 L 423 475 L 424 475 L 425 476 L 427 476 L 428 477 L 429 477 L 430 478 L 432 478 L 433 479 L 435 479 L 436 480 L 441 480 L 442 481 L 453 481 L 454 480 L 459 480 L 460 479 L 463 479 L 464 478 L 467 478 L 468 477 L 470 477 L 471 476 L 472 476 L 473 475 L 474 475 L 475 474 L 476 474 L 477 473 L 478 473 L 479 472 L 480 472 L 481 471 L 482 471 L 484 469 L 485 469 L 486 470 L 484 472 L 484 473 L 482 475 L 482 476 L 481 477 L 481 478 L 478 481 L 478 482 L 472 488 L 472 489 L 465 496 L 465 497 L 461 501 L 461 502 L 458 505 L 458 506 L 456 508 L 456 509 L 454 511 L 454 512 L 452 514 L 452 515 L 450 517 L 450 518 L 449 519 L 449 520 L 447 522 L 447 523 L 446 524 L 446 525 L 445 526 L 445 528 L 444 529 L 444 530 L 443 531 L 443 533 L 442 534 L 442 536 L 441 537 L 441 539 L 440 540 L 440 544 L 439 545 L 439 564 L 440 565 L 440 569 L 441 570 L 441 573 L 442 574 L 442 575 L 443 576 L 443 578 L 444 579 L 444 580 L 445 581 L 445 582 L 447 584 L 447 585 L 449 587 L 449 588 L 456 595 L 457 595 L 459 597 L 458 596 L 458 595 L 457 594 L 457 591 L 456 590 L 456 588 L 455 587 L 455 582 L 454 581 L 454 572 L 455 571 L 455 566 L 456 565 L 456 562 L 457 561 L 457 558 L 458 557 L 458 556 L 459 555 L 459 553 L 460 552 L 460 550 L 462 548 L 463 549 L 463 551 L 462 552 L 462 562 L 463 563 L 463 568 L 464 569 L 464 572 L 465 573 L 465 575 L 466 576 L 466 577 L 467 578 L 467 579 L 468 580 L 468 581 L 469 582 L 469 583 L 471 585 L 471 586 L 474 589 L 474 590 L 480 596 L 481 596 L 484 599 L 485 599 L 487 601 L 488 601 L 490 603 L 491 603 L 492 604 L 493 604 L 494 605 L 495 605 L 496 606 L 498 606 L 499 607 L 500 607 L 501 608 L 503 608 L 504 609 L 506 609 L 507 610 L 510 610 L 511 611 L 515 611 L 516 612 L 522 612 L 523 613 L 544 613 L 545 612 L 550 612 L 551 611 L 555 611 L 556 610 L 559 610 L 560 609 L 562 609 L 563 608 L 565 608 L 562 608 L 561 609 L 542 609 L 541 608 L 537 608 L 536 607 L 533 607 L 532 606 L 530 606 L 529 605 L 528 605 L 527 604 L 525 604 L 524 603 L 523 603 L 522 602 L 521 602 L 519 600 L 518 600 L 516 598 L 515 598 L 513 596 L 512 596 L 500 584 L 500 583 L 497 580 L 497 579 L 494 576 L 494 575 L 493 574 L 493 573 L 492 572 L 492 571 L 491 570 L 491 569 L 490 568 L 490 567 L 489 566 L 489 565 L 488 564 L 488 562 L 487 561 L 487 559 L 486 558 L 486 556 L 485 555 L 485 550 L 484 549 L 484 529 L 485 528 L 485 524 L 486 523 L 486 521 L 487 520 L 487 519 L 488 518 L 488 517 L 490 515 L 491 516 L 491 518 L 490 519 L 490 530 L 491 531 L 491 535 L 492 536 L 492 539 L 493 540 L 493 541 L 494 542 L 494 544 L 495 545 L 495 546 L 496 547 L 496 548 L 498 550 L 498 551 L 499 552 L 499 553 L 504 558 L 504 559 L 506 561 L 507 561 L 511 565 L 512 565 L 514 567 L 515 567 L 517 569 L 518 569 L 519 570 L 520 570 L 521 571 L 522 571 L 523 572 L 524 572 L 525 573 L 527 573 L 528 574 L 530 574 L 531 575 L 534 575 L 535 576 L 542 576 L 543 577 L 548 577 L 547 576 L 545 576 L 544 575 L 543 575 L 542 574 L 541 574 L 538 571 L 537 571 L 525 559 L 525 558 L 523 556 L 523 555 L 522 554 L 522 553 L 520 551 L 520 549 L 519 548 L 519 547 L 518 546 L 518 545 L 517 544 L 517 541 L 516 540 L 516 537 L 515 536 L 515 524 L 516 523 L 516 520 L 517 519 L 517 517 L 518 516 L 518 514 L 519 513 L 519 512 L 520 511 L 520 510 L 522 508 L 522 507 L 524 505 L 524 504 L 528 500 L 528 499 L 535 492 L 536 492 L 541 487 L 542 487 L 555 474 L 555 473 L 559 469 L 559 468 L 561 466 L 561 465 L 563 463 L 563 462 L 564 461 L 564 460 L 566 458 L 566 457 L 567 456 L 567 455 L 568 454 L 568 452 L 569 451 L 569 450 L 570 449 L 570 447 L 571 446 L 571 444 L 572 443 L 572 441 L 573 440 L 573 437 L 574 436 L 574 432 L 575 431 L 575 410 L 574 409 L 574 406 L 573 405 L 573 402 L 572 401 L 572 399 L 571 398 L 571 396 L 570 395 L 570 394 L 569 393 L 569 391 L 568 390 L 568 389 L 567 388 L 567 387 L 566 386 L 566 385 L 565 384 L 565 383 L 564 382 L 564 381 L 563 380 L 563 379 L 562 378 L 562 377 L 561 376 L 561 375 L 560 374 L 560 372 L 559 371 L 559 369 L 558 368 L 558 365 L 557 364 L 557 356 L 558 355 L 558 353 L 559 352 L 559 350 L 561 348 L 561 347 L 566 342 L 567 342 L 568 341 L 569 341 L 570 340 L 571 340 L 572 339 L 575 339 L 576 338 L 583 338 L 584 339 L 588 339 L 589 340 L 591 340 L 592 341 L 593 341 L 594 342 L 595 342 L 597 344 L 598 344 L 600 346 L 601 346 L 604 349 L 604 348 L 603 347 L 603 343 L 602 342 L 602 340 L 601 339 L 601 338 L 600 337 L 600 336 L 599 335 L 599 334 L 595 330 L 595 329 L 594 328 L 593 328 L 590 325 L 589 325 L 587 323 L 586 323 L 585 322 L 584 322 L 583 321 L 581 321 L 580 320 L 579 320 L 578 319 L 578 317 L 577 316 L 577 315 L 576 314 L 576 313 L 573 310 L 573 309 L 572 309 L 570 307 L 569 307 L 567 305 L 566 305 L 565 304 L 563 304 L 562 303 L 561 303 L 560 302 L 558 302 L 557 301 L 553 301 L 552 300 L 548 300 L 547 299 L 542 299 L 541 298 L 533 298 L 532 297 L 524 297 L 523 296 L 517 296 L 516 295 L 513 295 L 512 294 L 510 294 L 509 293 L 507 293 L 506 292 L 505 292 L 504 291 L 503 291 L 502 290 L 501 290 L 499 288 L 498 288 L 487 277 L 487 276 L 486 275 L 486 274 L 486 286 L 487 287 L 487 290 L 488 291 L 488 293 L 489 294 L 489 295 L 491 297 L 491 298 L 493 300 L 493 301 L 498 306 L 499 306 L 501 308 L 502 308 L 503 309 L 504 309 L 505 310 L 506 310 L 507 311 L 509 311 L 510 312 L 513 312 L 514 313 L 515 313 L 516 314 L 515 315 L 514 315 L 513 316 L 512 316 L 511 317 L 509 317 L 508 318 L 498 318 L 497 317 L 495 317 L 494 316 L 493 316 L 492 315 L 491 315 L 492 316 L 492 317 L 493 318 L 493 320 L 495 322 L 495 323 L 498 326 L 499 326 L 501 328 L 502 328 L 503 329 L 504 329 L 505 330 L 507 330 L 508 331 L 511 331 L 512 332 L 511 333 L 511 334 L 510 335 L 510 337 L 509 338 L 509 341 L 508 342 L 508 348 L 507 349 L 507 357 L 508 358 L 508 366 L 509 367 L 509 371 L 510 372 L 510 376 L 511 377 L 511 380 L 512 381 L 512 384 L 513 385 L 513 387 L 514 388 L 514 390 L 515 391 L 515 393 L 516 394 L 516 397 L 517 398 L 517 400 L 518 401 L 518 403 L 519 404 L 519 406 L 520 407 L 520 410 L 521 411 L 521 415 L 522 416 L 522 419 L 521 420 L 520 419 L 520 418 L 519 417 L 519 416 L 516 413 L 516 412 L 512 408 L 512 407 L 500 395 L 499 395 L 496 392 L 495 392 L 492 389 L 491 389 L 488 386 L 487 386 L 484 383 L 483 383 L 480 380 L 479 380 L 474 375 L 473 375 L 459 361 L 459 360 L 456 357 L 456 356 L 453 353 L 453 352 L 451 350 L 451 349 L 449 347 L 449 346 L 448 345 L 448 344 L 446 342 L 446 341 L 445 340 L 445 338 L 444 337 L 444 336 L 443 335 L 443 334 L 442 333 L 442 332 L 441 331 L 441 329 L 440 328 L 440 326 L 439 325 L 439 323 L 438 322 L 438 319 L 437 318 L 437 315 L 436 314 L 436 308 L 435 307 L 435 279 L 436 278 L 436 273 L 437 272 L 437 268 L 438 267 L 438 264 L 439 263 L 439 261 L 440 260 L 440 258 L 441 257 L 441 255 L 442 254 L 442 252 L 443 251 L 443 250 L 444 249 L 444 248 L 445 247 L 445 246 L 446 245 L 446 244 L 447 243 L 447 242 L 448 241 L 448 240 L 450 238 L 450 237 L 452 235 Z M 437 151 L 436 152 L 433 152 L 432 153 L 430 153 L 429 154 L 427 154 L 426 155 L 425 155 L 424 156 L 423 156 L 422 157 L 421 157 L 419 159 L 418 159 L 411 166 L 411 167 L 408 170 L 408 171 L 407 172 L 407 173 L 405 175 L 405 176 L 404 177 L 404 178 L 402 180 L 402 181 L 401 182 L 401 183 L 399 185 L 399 186 L 398 187 L 398 188 L 397 189 L 397 190 L 395 192 L 395 193 L 394 194 L 394 195 L 392 197 L 392 198 L 391 199 L 391 200 L 389 202 L 389 203 L 388 204 L 388 205 L 387 206 L 387 207 L 385 209 L 385 210 L 384 211 L 384 212 L 382 214 L 382 215 L 381 216 L 381 217 L 379 219 L 379 220 L 378 221 L 378 222 L 376 224 L 376 225 L 375 226 L 375 227 L 374 228 L 374 229 L 372 231 L 372 232 L 371 233 L 371 234 L 370 235 L 370 236 L 368 238 L 368 239 L 367 240 L 367 241 L 365 243 L 365 244 L 364 245 L 364 246 L 362 248 L 362 249 L 361 250 L 361 251 L 359 253 L 359 254 L 358 255 L 358 256 L 357 257 L 357 258 L 355 260 L 355 261 L 354 262 L 354 263 L 353 264 L 353 265 L 351 267 L 351 268 L 350 269 L 350 270 L 349 271 L 349 272 L 350 272 L 353 275 L 354 275 L 357 278 L 358 278 L 362 282 L 363 282 L 366 285 L 367 285 L 368 286 L 370 284 L 370 283 L 372 281 L 372 280 L 374 278 L 374 277 L 377 274 L 377 273 L 380 270 L 380 269 L 383 266 L 383 265 L 387 261 L 387 260 L 393 254 L 393 253 L 410 236 L 411 236 L 417 230 L 418 230 L 422 226 L 423 226 L 426 223 L 427 223 L 429 221 L 430 221 L 432 219 L 433 219 L 435 217 L 436 217 L 437 216 L 438 216 L 440 214 L 441 214 L 442 213 L 443 213 L 445 211 L 446 211 L 447 210 L 448 210 L 449 209 L 450 209 L 451 208 L 452 208 L 453 207 L 455 207 L 456 206 L 457 206 L 458 205 L 460 205 L 461 204 L 462 204 L 463 203 L 465 203 L 466 202 L 468 202 L 469 201 L 471 201 L 472 200 L 475 200 L 476 199 L 479 199 L 480 198 L 483 198 L 484 197 L 489 197 L 490 196 L 498 196 L 498 195 L 496 193 L 496 192 L 495 191 L 495 190 L 494 189 L 494 188 L 492 186 L 492 185 L 491 184 L 491 183 L 490 182 L 490 181 L 488 179 L 488 178 L 487 177 L 487 176 L 485 174 L 485 173 L 482 170 L 482 169 L 473 160 L 472 160 L 470 158 L 469 158 L 468 157 L 467 157 L 466 156 L 465 156 L 464 155 L 463 155 L 462 154 L 460 154 L 459 153 L 457 153 L 456 152 L 452 152 L 451 151 Z M 473 146 L 475 146 L 476 147 L 477 147 L 478 148 L 479 148 L 481 150 L 482 150 L 486 154 L 487 154 L 491 158 L 491 159 L 495 163 L 495 164 L 497 166 L 497 167 L 499 169 L 499 170 L 500 171 L 500 172 L 501 173 L 501 174 L 503 176 L 503 177 L 504 178 L 504 179 L 505 180 L 505 181 L 506 182 L 506 183 L 508 185 L 508 186 L 509 187 L 509 188 L 510 189 L 510 190 L 512 192 L 512 193 L 513 194 L 513 195 L 515 197 L 515 198 L 516 199 L 516 200 L 518 202 L 518 203 L 519 204 L 519 205 L 521 207 L 521 208 L 522 209 L 522 210 L 523 211 L 523 212 L 525 214 L 525 215 L 526 216 L 526 217 L 528 219 L 528 220 L 529 221 L 529 222 L 531 224 L 531 225 L 532 226 L 532 227 L 534 229 L 534 230 L 535 231 L 535 232 L 537 234 L 537 235 L 538 236 L 538 237 L 540 239 L 540 240 L 541 241 L 541 242 L 543 244 L 543 245 L 544 246 L 544 247 L 546 249 L 546 250 L 547 251 L 547 252 L 549 254 L 549 255 L 551 257 L 551 258 L 550 259 L 549 259 L 548 260 L 547 260 L 546 261 L 545 261 L 544 262 L 543 262 L 542 263 L 541 263 L 540 264 L 539 264 L 537 266 L 536 266 L 535 267 L 534 267 L 533 268 L 532 268 L 531 269 L 530 269 L 529 270 L 528 270 L 527 271 L 526 271 L 524 273 L 523 273 L 522 274 L 521 274 L 520 275 L 519 275 L 518 276 L 529 276 L 530 277 L 542 277 L 543 278 L 556 278 L 557 279 L 569 279 L 570 280 L 581 280 L 582 281 L 594 281 L 595 282 L 606 282 L 607 283 L 618 283 L 619 284 L 627 284 L 628 285 L 628 284 L 629 283 L 629 282 L 630 281 L 630 280 L 631 279 L 631 278 L 633 276 L 633 275 L 634 274 L 634 273 L 635 272 L 635 271 L 636 270 L 636 269 L 637 268 L 637 267 L 638 266 L 638 265 L 639 264 L 639 263 L 640 262 L 640 261 L 641 260 L 641 259 L 642 258 L 642 257 L 643 256 L 643 255 L 644 254 L 644 253 L 645 252 L 645 251 L 646 250 L 646 249 L 647 248 L 647 247 L 649 245 L 649 244 L 650 243 L 650 242 L 651 241 L 651 240 L 652 239 L 652 238 L 653 237 L 653 236 L 654 235 L 654 234 L 655 233 L 655 232 L 656 231 L 656 230 L 657 229 L 657 228 L 658 227 L 658 226 L 659 225 L 659 224 L 660 223 L 660 222 L 661 221 L 661 220 L 662 219 L 662 218 L 663 217 L 663 216 L 664 215 L 664 214 L 665 213 L 665 212 L 666 211 L 666 210 L 667 209 L 667 208 L 668 207 L 668 206 L 669 205 L 669 204 L 670 203 L 670 202 L 671 201 L 671 200 L 672 199 L 672 198 L 673 197 L 673 196 L 674 195 L 674 194 L 675 193 L 675 192 L 673 194 L 672 194 L 670 196 L 669 196 L 667 198 L 666 198 L 665 199 L 664 199 L 662 201 L 661 201 L 659 203 L 658 203 L 656 205 L 655 205 L 654 206 L 653 206 L 651 208 L 650 208 L 648 210 L 647 210 L 645 212 L 644 212 L 643 213 L 642 213 L 640 211 L 640 210 L 639 209 L 639 208 L 638 207 L 638 206 L 636 204 L 636 203 L 635 202 L 635 201 L 634 200 L 634 199 L 633 198 L 633 197 L 631 195 L 631 194 L 630 193 L 630 192 L 629 191 L 629 190 L 628 189 L 628 188 L 627 187 L 627 186 L 625 184 L 625 183 L 624 182 L 624 181 L 623 180 L 623 179 L 622 178 L 622 177 L 621 176 L 621 175 L 619 173 L 619 172 L 618 171 L 618 170 L 617 169 L 617 168 L 616 167 L 616 166 L 614 164 L 614 163 L 612 161 L 612 160 L 606 154 L 605 154 L 603 152 L 602 152 L 601 151 L 600 151 L 599 150 L 598 150 L 597 149 L 595 149 L 594 148 L 590 148 L 589 147 L 480 147 L 479 146 L 478 147 L 477 146 Z" />
</svg>